<svg xmlns="http://www.w3.org/2000/svg" viewBox="0 0 1230 300"><defs><style>.cls-1{fill:#fff;}</style></defs><title>Artboard 1</title><g id="T"><polygon class="cls-1" points="1230 0 1180 100 1105 100 1105 300 1005 300 1005 100 880 100 930 0 1230 0"/></g><g id="F"><polygon class="cls-1" points="760 95 760 105 860 105 810 195.09 760 195.09 760 300 660 300 660 0 910 0 860 95 760 95"/></g><g id="I"><rect class="cls-1" x="540" width="100" height="300"/></g><g id="H"><polygon class="cls-1" points="520 0 520 300 420 300 420 200 370 200 370 300 270 300 270 0 370 0 370 100 420 100 420 0 520 0"/></g><g id="S"><path class="cls-1" d="M250,145V260a40,40,0,0,1-40,40H0l50-95H159.91v-9.91H40a40,40,0,0,1-40-40V40A40,40,0,0,1,40,0H250L200,95H90.09v10H210A40,40,0,0,1,250,145Z"/></g></svg>